<?xml version="1.0" encoding="UTF-8"?>
<svg version="1.1" xmlns="http://www.w3.org/2000/svg" width="512" height="512">
<path d="M0 0 C0.94902185 -0.00829899 1.89804371 -0.01659798 2.8758238 -0.02514845 C3.91024962 -0.02409761 4.94467544 -0.02304676 6.0104475 -0.02196407 C7.66835293 -0.03193579 7.66835293 -0.03193579 9.3597514 -0.04210895 C13.07066788 -0.0618249 16.78146381 -0.06718358 20.49242687 -0.07248592 C23.15010751 -0.08337918 25.80777632 -0.0950174 28.46544933 -0.10744381 C36.44417463 -0.142163 44.42289522 -0.15777683 52.40167955 -0.17156711 C56.16079026 -0.17853261 59.91989548 -0.18768839 63.67900181 -0.1966753 C76.17699153 -0.22587227 88.67497591 -0.25066742 101.17299652 -0.26129913 C101.97253107 -0.26198983 102.77206562 -0.26268052 103.59582848 -0.26339215 C104.39725521 -0.26408416 105.19868194 -0.26477618 106.02439433 -0.26548916 C107.64834139 -0.26690115 109.27228843 -0.26832196 110.89623547 -0.26975155 C112.10453138 -0.2708093 112.10453138 -0.2708093 113.33723732 -0.27188843 C126.39080204 -0.28413991 139.44407643 -0.32693995 152.49752066 -0.38269175 C165.90419312 -0.43948679 179.31071879 -0.46995022 192.71751279 -0.47431129 C200.24307875 -0.47739203 207.76824111 -0.49187116 215.29369068 -0.53559208 C221.70139016 -0.57271511 228.10857671 -0.58586329 234.51636831 -0.56788719 C237.78460176 -0.5594404 241.05157027 -0.56605311 244.31971073 -0.59570599 C247.86676651 -0.62605296 251.41115348 -0.61321384 254.95820141 -0.58959103 C255.98593507 -0.60861668 257.01366872 -0.62764233 258.07254583 -0.64724451 C264.63285985 -0.54323102 267.94716333 0.88846098 272.59697503 5.5533939 C273.11765724 6.11843803 273.63833946 6.68348216 274.17479992 7.26564884 C275.30087658 8.33553043 275.30087658 8.33553043 276.44970226 9.42702579 C277.34616467 10.33134342 277.34616467 10.33134342 278.26073742 11.25393009 C279.30221935 12.30036686 279.30221935 12.30036686 280.36474133 13.36794376 C281.08581066 14.09731144 281.80688 14.82667912 282.54979992 15.57814884 C283.31856457 16.35070011 284.08732922 17.12325138 284.87938976 17.91921329 C288.13339821 21.1894092 291.38136258 24.46558374 294.62987804 27.74123478 C297.01775344 30.14730169 299.40870785 32.55027923 301.79979992 34.95314884 C302.52086926 35.68251652 303.24193859 36.41188419 303.98485851 37.16335392 C307.94574936 41.14308864 312.00654559 44.92450246 316.2589674 48.59026432 C321.31972707 53.01586955 326.05717174 57.80240243 330.83886242 62.52468204 C332.14351446 63.80773066 333.45439294 65.08447933 334.77147961 66.35476017 C352.52933584 83.49042718 352.52933584 83.49042718 353.40331554 94.01833439 C353.17479992 96.26564884 353.17479992 96.26564884 351.62011242 97.60939884 C350.85440929 97.99096134 350.08870617 98.37252384 349.29979992 98.76564884 C321.10661191 114.29985583 295.15615651 138.3615722 273.11229992 161.57814884 C272.50515148 162.21148136 271.89800304 162.84481388 271.27245617 163.49733829 C261.09495459 174.39150561 257.9548513 183.35970348 257.54979992 198.20314884 C257.51112804 199.36394962 257.47245617 200.5247504 257.43261242 201.72072697 C257.33884605 204.56888053 257.25314075 207.41703622 257.17479992 210.26564884 C252.51634637 212.04963051 247.89863701 213.66737115 243.11229992 215.07814884 C236.54482935 217.31687151 232.10145981 219.47249215 228.86913586 225.83620548 C224.3693013 236.46118061 220.3564158 247.25634138 216.45897961 258.11550236 C215.68437744 260.26229888 214.90079342 262.40587521 214.10839367 264.54616642 C207.47244571 280.93091721 207.47244571 280.93091721 207.17479992 298.26564884 C207.81850138 299.61021965 208.48118024 300.94613607 209.17479992 302.26564884 C208.98076977 305.75819144 207.98263821 307.57427219 206.11229992 310.57814884 C201.93152808 318.6946656 203.39195108 329.60009285 205.79979992 338.07814884 C210.84408059 352.3321963 219.20685546 363.83277679 231.40136242 372.80471134 C233.38552405 375.55806338 233.40613502 376.04925121 233.09667492 379.27346134 C232.81786917 380.9425328 232.50786091 382.60655193 232.17479992 384.26564884 C231.91739025 385.66387882 231.91739025 385.66387882 231.65478039 387.09035587 C231.06176884 390.23756386 230.4322794 393.37614876 229.79979992 396.51564884 C222.45417549 425.01227933 222.45417549 425.01227933 226.83886242 452.62111759 C231.18351346 457.96935762 236.00836468 461.77142342 243.00683117 462.60158634 C250.72152327 462.70269633 255.97085288 461.87587215 261.88964367 456.79299259 C270.47189525 447.916972 270.51606328 433.43822537 272.17479992 421.82814884 C275.23872121 400.42657881 275.23872121 400.42657881 278.17479992 391.26564884 C279.40972179 391.11869572 280.64464367 390.97174259 281.91698742 390.82033634 C309.37086517 387.29472646 332.68709526 376.9849764 351.81933117 356.62893009 C352.26663586 356.17904728 352.71394054 355.72916447 353.17479992 355.26564884 C353.50479992 355.26564884 353.83479992 355.26564884 354.17479992 355.26564884 C354.26833101 373.38117417 354.33882204 391.49663664 354.38204861 409.61235142 C354.40265488 418.02420986 354.43073831 426.43591808 354.47655773 434.84768009 C354.51648494 442.18123016 354.5422468 449.51467141 354.5511539 456.84832716 C354.55635874 460.72981491 354.56855119 464.61099141 354.59772015 468.49237919 C354.62498256 472.14989652 354.63322331 475.80697601 354.62723064 479.4645853 C354.6288462 481.43834884 354.65031218 483.41206529 354.67248058 485.38570499 C354.63454787 493.58792489 353.7684511 499.16474272 348.20995617 505.50783634 C347.55897961 506.04666447 346.90800304 506.58549259 346.23729992 507.14064884 C345.58890148 507.69494572 344.94050304 508.24924259 344.27245617 508.82033634 C340.03066633 511.74298484 336.34873525 512.51594912 331.24076653 512.52291775 C330.04442359 512.52936664 328.84808065 512.53581553 327.61548489 512.54245985 C326.30480174 512.53936264 324.99411859 512.53626544 323.64371777 512.53307438 C322.23441983 512.53681123 320.82512396 512.5414129 319.41583139 512.54680502 C315.54321103 512.55904615 311.67067699 512.55877325 307.7980417 512.55641627 C303.6213732 512.55600839 299.44473248 512.56704456 295.2680769 512.57653141 C287.08516255 512.59314851 278.90227701 512.59864128 270.7193472 512.59975617 C264.06811914 512.60070631 257.4169006 512.60481491 250.76567554 512.61115742 C231.91030205 512.6287718 213.05495133 512.63799599 194.19956955 512.63649647 C192.67463402 512.6363766 192.67463402 512.6363766 191.11889172 512.63625431 C190.10102746 512.63617255 189.08316319 512.63609079 188.03445456 512.63600655 C171.53756221 512.6351936 155.04076115 512.6543329 138.54389521 512.68253104 C121.60706591 512.71125289 104.67028114 512.72507172 87.73342687 512.72334349 C78.22385193 512.72267935 68.71437269 512.7281824 59.20481968 512.74969959 C51.10822941 512.76790219 43.01177822 512.77226632 34.91517635 512.75868075 C30.78453462 512.7521464 26.65415978 512.75205055 22.52354336 512.76938725 C18.74027945 512.78510268 14.95749441 512.78227035 11.1742423 512.76481898 C9.16126232 512.76029252 7.14826759 512.77541842 5.13534516 512.79129827 C-3.09206318 512.72845616 -8.7046625 511.8765032 -15.06738758 506.30080509 C-15.60621571 505.64982853 -16.14504383 504.99885197 -16.70020008 504.32814884 C-17.25449696 503.6797504 -17.80879383 503.03135197 -18.37988758 502.36330509 C-21.74078162 497.48546699 -22.11417141 493.00309417 -22.08246899 487.20765305 C-22.08597506 486.39723797 -22.08948114 485.5868229 -22.09309345 484.7518498 C-22.10242802 482.02499225 -22.09747883 479.2983473 -22.09262562 476.57148075 C-22.09636084 474.60121067 -22.10096184 472.63094206 -22.10635626 470.66067582 C-22.11861749 465.23744828 -22.11832212 459.81428227 -22.11596751 454.39104402 C-22.11556013 448.54565212 -22.12659091 442.70028016 -22.13608265 436.8548975 C-22.15271065 425.39935278 -22.15819301 413.94382864 -22.15930741 402.48827287 C-22.16025701 393.17876957 -22.16436292 383.86927308 -22.17070866 374.55977154 C-22.17250372 371.88078653 -22.17428335 369.2018015 -22.17605841 366.52281648 C-22.17650051 365.8568268 -22.1769426 365.19083713 -22.1773981 364.50466595 C-22.18970791 345.76948013 -22.19759908 327.03429664 -22.19671154 308.2991066 C-22.19668038 307.59263122 -22.19664923 306.88615584 -22.19661712 306.15827212 C-22.19645091 302.5774994 -22.19625282 298.99672668 -22.19604771 295.41595396 C-22.19600782 294.70479007 -22.19596793 293.99362619 -22.19592683 293.26091189 C-22.19584595 291.82276492 -22.19576236 290.38461794 -22.19567605 288.94647097 C-22.19445049 266.57033435 -22.20946404 244.19425835 -22.23682117 221.81813908 C-22.26753878 196.68300533 -22.28475387 171.5479114 -22.28289473 146.41275769 C-22.2821534 133.10258315 -22.28775377 119.79247273 -22.30925083 106.48231411 C-22.32743509 95.15049027 -22.33183261 83.81876576 -22.31823198 72.48693367 C-22.31168849 66.70370232 -22.31163503 60.92066169 -22.32893848 55.13744831 C-22.34461302 49.84428572 -22.34186304 44.55146597 -22.32437022 39.25831202 C-22.32128793 37.34244875 -22.32497872 35.42656024 -22.33609037 33.51072671 C-22.35019205 30.90712488 -22.33964083 28.30472885 -22.32297802 25.70116806 C-22.33291438 24.95673629 -22.34285074 24.21230451 -22.3530882 23.4453142 C-22.26590344 17.0051071 -20.10879112 11.87157579 -15.86035633 7.02346134 C-15.20937977 6.48463322 -14.55840321 5.94580509 -13.88770008 5.39064884 C-13.23930164 4.83635197 -12.59090321 4.28205509 -11.92285633 3.71096134 C-8.10146712 1.07797436 -4.6193526 0.01716043 0 0 Z " fill="#E0EAF3" transform="translate(49.82520008087158,-0.26564884185791016)"/>
<path d="M0 0 C1.16982422 -0.03673828 1.16982422 -0.03673828 2.36328125 -0.07421875 C5.94005704 -0.09256119 8.03974794 0.01582661 11.1328125 1.9140625 C13.18384025 5.29664754 13.22254095 8.28332215 13.125 12.125 C13.11218994 12.91084473 13.09937988 13.69668945 13.08618164 14.50634766 C11.57272543 60.80822753 -8.23267325 107.86222582 -28.3125 148.875 C-28.84407715 149.97376465 -29.3756543 151.0725293 -29.92333984 152.20458984 C-30.43203613 153.2198877 -30.94073242 154.23518555 -31.46484375 155.28125 C-31.90691162 156.17134766 -32.34897949 157.06144531 -32.80444336 157.97851562 C-35.65215234 162.32378399 -39.81175325 164.76237245 -44.23828125 167.3203125 C-45.12451172 167.83980469 -46.01074219 168.35929688 -46.92382812 168.89453125 C-48.78427439 169.97529933 -50.64628658 171.05337578 -52.50976562 172.12890625 C-53.38955078 172.64582031 -54.26933594 173.16273438 -55.17578125 173.6953125 C-55.98184814 174.16211426 -56.78791504 174.62891602 -57.6184082 175.10986328 C-58.1980835 175.5273584 -58.77775879 175.94485352 -59.375 176.375 C-59.375 179.58449338 -57.17842827 181.12199758 -55.125 183.5 C-46.189259 194.31027342 -46.189259 194.31027342 -46.6015625 201.11328125 C-47.2580178 205.4747381 -48.64995494 209.33220943 -50.375 213.375 C-50.68187744 214.10412598 -50.98875488 214.83325195 -51.30493164 215.58447266 C-58.41649282 232.03228264 -68.08309785 246.34006404 -80.375 259.375 C-81.38626953 260.50035156 -81.38626953 260.50035156 -82.41796875 261.6484375 C-96.14239397 276.32559018 -116.90762572 287.34186683 -137.13232422 288.53808594 C-143.21753818 288.70257862 -149.29276002 288.60565671 -155.375 288.375 C-158.70852927 305.01263386 -161.62512633 321.67451334 -164.26171875 338.43359375 C-164.96202064 342.83130849 -165.66544733 347.22807761 -166.41796875 351.6171875 C-166.56387451 352.47554199 -166.70978027 353.33389648 -166.86010742 354.21826172 C-167.375 356.375 -167.375 356.375 -169 359.0625 C-172.36413308 360.92162618 -175.6322037 361.36918027 -179.375 360.375 C-181.98499137 358.28415312 -183.23920827 357.1038469 -183.86010742 353.77124023 C-183.64680928 344.16041377 -182.29535267 334.89374973 -180.6875 325.4375 C-180.41704958 323.79569844 -180.14686942 322.15385234 -179.87695312 320.51196289 C-178.20151054 310.47031286 -176.28869616 300.51665081 -173.6730957 290.67016602 C-172.45696576 286.43099541 -172.45696576 286.43099541 -173.21875 282.22924805 C-174.64138768 279.94780101 -176.18585007 278.80586013 -178.375 277.25 C-190.3183953 268.18222155 -199.89431618 257.31851274 -203.375 242.375 C-204.6976712 231.46296257 -204.6976712 231.46296257 -202.20703125 227.53125 C-200.6875 226.25 -200.6875 226.25 -197.375 224.375 C-196.4675 223.776875 -195.56 223.17875 -194.625 222.5625 C-192.375 221.375 -192.375 221.375 -190.375 221.375 C-191.01308594 220.53195312 -191.65117187 219.68890625 -192.30859375 218.8203125 C-193.14331357 217.71360532 -193.97794437 216.60683099 -194.8125 215.5 C-195.23337891 214.94441406 -195.65425781 214.38882813 -196.08789062 213.81640625 C-199.86069476 208.80612236 -201.09413049 205.67363157 -200.375 199.375 C-199.28743989 195.21613778 -197.83480406 191.21101816 -196.359375 187.17578125 C-195.74101776 185.4459626 -195.74101776 185.4459626 -195.11016846 183.68119812 C-194.23860622 181.25261835 -193.36076851 178.82628265 -192.47705078 176.40209961 C-191.12779964 172.69519167 -189.80278538 168.98026117 -188.48046875 165.26367188 C-187.62903496 162.90052567 -186.77621706 160.5378776 -185.921875 158.17578125 C-185.52691833 157.06737381 -185.13196167 155.95896637 -184.72503662 154.81697083 C-180.28719696 142.73378768 -180.28719696 142.73378768 -174.78125 140.16479492 C-173.8221875 139.89771729 -172.863125 139.63063965 -171.875 139.35546875 C-170.823125 139.05576172 -169.77125 138.75605469 -168.6875 138.44726562 C-167.594375 138.15529297 -166.50125 137.86332031 -165.375 137.5625 C-163.7353125 137.09553711 -163.7353125 137.09553711 -162.0625 136.61914062 C-157.66012552 135.39176294 -153.97036373 134.375 -149.375 134.375 C-149.39594727 133.28558105 -149.41689453 132.19616211 -149.43847656 131.07373047 C-149.51111865 127.01478322 -149.55688718 122.95589294 -149.59472656 118.89648438 C-149.6147871 117.14280521 -149.64204251 115.38919247 -149.67675781 113.63574219 C-149.72552302 111.10855682 -149.74802392 108.58225909 -149.765625 106.0546875 C-149.78627014 105.27632538 -149.80691528 104.49796326 -149.82818604 103.6960144 C-149.83096764 96.88005145 -147.02101206 92.91075584 -142.4140625 88 C-141.59349365 87.12118164 -141.59349365 87.12118164 -140.75634766 86.22460938 C-140.17675293 85.61423828 -139.5971582 85.00386719 -139 84.375 C-138.39075684 83.72853516 -137.78151367 83.08207031 -137.15380859 82.41601562 C-128.26460167 73.03207725 -119.29378191 63.68082111 -109.375 55.375 C-107.98474609 54.1684375 -107.98474609 54.1684375 -106.56640625 52.9375 C-98.14784382 45.65608256 -89.39618091 38.89216879 -80.375 32.375 C-79.79089355 31.94864258 -79.20678711 31.52228516 -78.60498047 31.08300781 C-56.30023137 14.95092372 -28.16190096 0.04797598 0 0 Z " fill="#2D4356" transform="translate(471.375,87.625)"/>
<path d="M0 0 C0.94902185 -0.00829899 1.89804371 -0.01659798 2.8758238 -0.02514845 C3.91024962 -0.02409761 4.94467544 -0.02304676 6.0104475 -0.02196407 C7.66835293 -0.03193579 7.66835293 -0.03193579 9.3597514 -0.04210895 C13.07066788 -0.0618249 16.78146381 -0.06718358 20.49242687 -0.07248592 C23.15010751 -0.08337918 25.80777632 -0.0950174 28.46544933 -0.10744381 C36.44417463 -0.142163 44.42289522 -0.15777683 52.40167955 -0.17156711 C56.16079026 -0.17853261 59.91989548 -0.18768839 63.67900181 -0.1966753 C76.17699153 -0.22587227 88.67497591 -0.25066742 101.17299652 -0.26129913 C101.97253107 -0.26198983 102.77206562 -0.26268052 103.59582848 -0.26339215 C104.39725521 -0.26408416 105.19868194 -0.26477618 106.02439433 -0.26548916 C107.64834139 -0.26690115 109.27228843 -0.26832196 110.89623547 -0.26975155 C112.10453138 -0.2708093 112.10453138 -0.2708093 113.33723732 -0.27188843 C126.39080204 -0.28413991 139.44407643 -0.32693995 152.49752066 -0.38269175 C165.90419312 -0.43948679 179.31071879 -0.46995022 192.71751279 -0.47431129 C200.24307875 -0.47739203 207.76824111 -0.49187116 215.29369068 -0.53559208 C221.70139016 -0.57271511 228.10857671 -0.58586329 234.51636831 -0.56788719 C237.78460176 -0.5594404 241.05157027 -0.56605311 244.31971073 -0.59570599 C247.86676651 -0.62605296 251.41115348 -0.61321384 254.95820141 -0.58959103 C255.98593507 -0.60861668 257.01366872 -0.62764233 258.07254583 -0.64724451 C264.63285985 -0.54323102 267.94716333 0.88846098 272.59697503 5.5533939 C273.11765724 6.11843803 273.63833946 6.68348216 274.17479992 7.26564884 C275.30087658 8.33553043 275.30087658 8.33553043 276.44970226 9.42702579 C277.34616467 10.33134342 277.34616467 10.33134342 278.26073742 11.25393009 C279.30221935 12.30036686 279.30221935 12.30036686 280.36474133 13.36794376 C281.08581066 14.09731144 281.80688 14.82667912 282.54979992 15.57814884 C283.31856457 16.35070011 284.08732922 17.12325138 284.87938976 17.91921329 C288.13339821 21.1894092 291.38136258 24.46558374 294.62987804 27.74123478 C297.01775344 30.14730169 299.40870785 32.55027923 301.79979992 34.95314884 C302.52086926 35.68251652 303.24193859 36.41188419 303.98485851 37.16335392 C307.94574936 41.14308864 312.00654559 44.92450246 316.2589674 48.59026432 C321.31972707 53.01586955 326.05717174 57.80240243 330.83886242 62.52468204 C332.14351446 63.80773066 333.45439294 65.08447933 334.77147961 66.35476017 C352.43350789 83.39795679 352.43350789 83.39795679 353.43188 93.99416447 C353.17479992 96.26564884 353.17479992 96.26564884 351.16308117 97.99611759 C349.83856945 98.71734806 349.83856945 98.71734806 348.48729992 99.45314884 C347.18212414 100.18598087 347.18212414 100.18598087 345.85058117 100.93361759 C343.33101474 102.18788351 340.8044353 103.26591359 338.17479992 104.26564884 C337.84479992 101.62564884 337.51479992 98.98564884 337.17479992 96.26564884 C336.37823986 96.27453129 335.5816798 96.28341373 334.76098156 96.29256535 C327.22884187 96.37294288 319.69691216 96.43373013 312.16445446 96.47289753 C308.29255302 96.4937114 304.421008 96.52191394 300.54931164 96.56740665 C296.80805524 96.61108814 293.06714018 96.63483251 289.32564831 96.64515781 C287.90316939 96.65250948 286.48070769 96.66686523 285.05837536 96.68856907 C275.6019109 96.82703928 269.05595512 96.52697481 261.71386242 90.11721134 C260.76640148 89.0150629 260.76640148 89.0150629 259.79979992 87.89064884 C259.15269054 87.16103947 258.50558117 86.43143009 257.83886242 85.67971134 C254.64101968 81.04058736 253.92471934 76.5350676 253.94774914 70.98488712 C253.9479002 69.76407444 253.94805126 68.54326176 253.9482069 67.28545475 C253.95852947 65.98212193 253.96885204 64.6787891 253.97948742 63.33596134 C253.9832219 61.97690381 253.98606682 60.61784358 253.98806286 59.25878239 C253.99566509 55.69790435 254.01528382 52.13719187 254.03747082 48.57637882 C254.05800313 44.9363666 254.0670803 41.29632739 254.07714367 37.65627384 C254.09853329 30.52599816 254.13262758 23.39583437 254.17479992 16.26564884 C221.75732427 16.30192634 189.33996491 16.35852195 156.92258231 16.44356979 C153.09731279 16.45358751 149.27204283 16.4634316 145.44677258 16.47316837 C144.68521505 16.47510975 143.92365753 16.47705112 143.1390225 16.47905132 C130.80036338 16.51009092 118.46172287 16.52705743 106.12303206 16.53884307 C93.46682067 16.5512445 80.81070711 16.57872302 68.15455747 16.62026191 C60.34204074 16.64542632 52.5296862 16.65876399 44.71712837 16.65707842 C38.7311771 16.6570452 32.74548825 16.67796651 26.75959873 16.70681667 C24.3005308 16.71536066 21.84142831 16.71703537 19.38235188 16.71145153 C16.03340269 16.7048579 12.68545262 16.72262174 9.33660412 16.74666691 C8.35606367 16.73890649 7.37552322 16.73114607 6.36526942 16.72315049 C5.46903936 16.73459808 4.57280929 16.74604567 3.64942074 16.75784016 C2.87631015 16.75935904 2.10319955 16.76087792 1.30666137 16.76244283 C-1.8460053 17.50660039 -2.94851127 18.63338786 -4.82520008 21.26564884 C-5.21728712 24.00718372 -5.3631284 26.34676329 -5.32856464 29.08683109 C-5.33437841 29.88378372 -5.34019217 30.68073634 -5.34618211 31.50183904 C-5.36085301 34.18911835 -5.34686417 36.87549438 -5.33313465 39.56276798 C-5.33774077 41.50203038 -5.34409173 43.44128929 -5.35204363 45.38054085 C-5.36879979 50.72261506 -5.36046206 56.06440484 -5.34809875 61.40648031 C-5.33907625 67.16252482 -5.35300405 72.91851921 -5.36401844 78.67455387 C-5.38183823 89.95580092 -5.37794828 101.23694173 -5.36636788 112.51819301 C-5.35734742 121.68378655 -5.35610353 130.84935024 -5.36046314 140.01494694 C-5.36107607 141.31766987 -5.36168901 142.6203928 -5.36232051 143.96259218 C-5.36359937 146.60875313 -5.36489622 149.25491407 -5.36621088 151.90107501 C-5.37730115 176.02652124 -5.36578512 200.15191151 -5.34484049 224.27734865 C-5.32585741 246.3109147 -5.32755589 268.34438829 -5.34668446 290.37795353 C-5.3680932 315.12081315 -5.37652808 339.86361951 -5.3642354 364.60648727 C-5.36296116 367.24310842 -5.36170367 369.87972958 -5.36046314 372.51635075 C-5.35953749 374.46243429 -5.35953749 374.46243429 -5.35859314 376.44783264 C-5.35513427 385.606203 -5.36098013 394.76454063 -5.37038136 403.92290592 C-5.38158063 415.07847848 -5.37860497 426.2339384 -5.35725838 437.389498 C-5.34672006 443.08513386 -5.34267343 448.78058169 -5.35585499 454.47621632 C-5.36772718 459.68472182 -5.36130212 464.89286406 -5.33994478 470.10133636 C-5.33545669 471.9909084 -5.33779404 473.88051081 -5.34744793 475.77006352 C-5.3595226 478.32864101 -5.34722896 480.88595626 -5.32856464 483.44446659 C-5.33792931 484.1868575 -5.34729397 484.92924842 -5.35694242 485.69413602 C-5.30843764 488.99591603 -5.02766451 490.96868486 -3.14981604 493.72301245 C-0.25766219 495.64227217 1.41235051 495.76679095 4.87201977 495.7690134 C6.04097129 495.77944439 7.20992281 495.78987538 8.4142971 495.80062246 C10.34209243 495.78723813 10.34209243 495.78723813 12.30883312 495.77358341 C13.6871246 495.7781912 15.06541118 495.78454331 16.44368744 495.79249239 C20.23518652 495.80922593 24.02628406 495.80092135 27.81778479 495.78854752 C31.90511007 495.77951568 35.99236518 495.79345744 40.07967663 495.8044672 C48.08830596 495.82227704 56.09678556 495.81840151 64.10542083 495.80681664 C70.61274144 495.79779226 77.12002001 495.79655399 83.62734509 495.8009119 C85.01525579 495.8018313 85.01525579 495.8018313 86.43120509 495.80276927 C88.31073405 495.80404814 90.19026299 495.80534499 92.06979191 495.80665964 C109.70451253 495.81807266 127.33915005 495.80494043 144.97385705 495.78345817 C160.11347078 495.76558654 175.25296184 495.76869044 190.39257336 495.78713322 C207.96310955 495.8085272 225.53357286 495.81697395 243.10412025 495.80468416 C244.97683174 495.80340993 246.84954324 495.80215245 248.72225475 495.8009119 C250.1044598 495.79998625 250.1044598 495.79998625 251.51458818 495.7990419 C258.01597738 495.79558457 264.51732045 495.80142556 271.01870251 495.81083012 C278.93904644 495.82203514 286.85923176 495.81904168 294.77955747 495.79770714 C298.82260162 495.78717646 302.86538108 495.78310899 306.90842342 495.79630375 C310.60703753 495.80819211 314.30514072 495.8017247 318.00370824 495.78039354 C319.98090686 495.77378353 321.95814072 495.78689539 323.93530273 495.80062246 C325.68873002 495.78497598 325.68873002 495.78497598 327.47758007 495.7690134 C328.48850562 495.768364 329.49943117 495.76771459 330.54099083 495.7670455 C333.89333444 495.12886186 335.08433507 493.90939725 337.17479992 491.26564884 C337.73929816 488.86726622 337.73929816 488.86726622 337.60630322 486.23378849 C337.60142895 485.21910496 337.59655468 484.20442142 337.59153271 483.15898991 C337.56607876 482.05143345 337.54062481 480.94387699 337.51439953 479.80275822 C337.49858334 478.04589191 337.49858334 478.04589191 337.48244762 476.25353336 C337.45827895 473.70746854 337.42563149 471.16147348 337.38556767 468.61560917 C337.32211716 464.57941494 337.29889682 460.54361087 337.28382397 456.50698185 C337.23622899 445.02900837 337.16026882 433.55204028 336.9865675 422.07521915 C336.89093653 415.73460199 336.84243856 409.39540779 336.84529787 403.05404997 C336.84475545 399.70215196 336.81299998 396.35758688 336.73737431 393.00605106 C336.25406933 371.00601791 336.25406933 371.00601791 341.05446911 364.95534611 C344.11868042 361.82001846 347.41955385 359.50934081 351.17479992 357.26564884 C352.16479992 356.60564884 353.15479992 355.94564884 354.17479992 355.26564884 C354.26833101 373.38117417 354.33882204 391.49663664 354.38204861 409.61235142 C354.40265488 418.02420986 354.43073831 426.43591808 354.47655773 434.84768009 C354.51648494 442.18123016 354.5422468 449.51467141 354.5511539 456.84832716 C354.55635874 460.72981491 354.56855119 464.61099141 354.59772015 468.49237919 C354.62498256 472.14989652 354.63322331 475.80697601 354.62723064 479.4645853 C354.6288462 481.43834884 354.65031218 483.41206529 354.67248058 485.38570499 C354.63454787 493.58792489 353.7684511 499.16474272 348.20995617 505.50783634 C347.55897961 506.04666447 346.90800304 506.58549259 346.23729992 507.14064884 C345.58890148 507.69494572 344.94050304 508.24924259 344.27245617 508.82033634 C340.03066633 511.74298484 336.34873525 512.51594912 331.24076653 512.52291775 C330.04442359 512.52936664 328.84808065 512.53581553 327.61548489 512.54245985 C326.30480174 512.53936264 324.99411859 512.53626544 323.64371777 512.53307438 C322.23441983 512.53681123 320.82512396 512.5414129 319.41583139 512.54680502 C315.54321103 512.55904615 311.67067699 512.55877325 307.7980417 512.55641627 C303.6213732 512.55600839 299.44473248 512.56704456 295.2680769 512.57653141 C287.08516255 512.59314851 278.90227701 512.59864128 270.7193472 512.59975617 C264.06811914 512.60070631 257.4169006 512.60481491 250.76567554 512.61115742 C231.91030205 512.6287718 213.05495133 512.63799599 194.19956955 512.63649647 C192.67463402 512.6363766 192.67463402 512.6363766 191.11889172 512.63625431 C190.10102746 512.63617255 189.08316319 512.63609079 188.03445456 512.63600655 C171.53756221 512.6351936 155.04076115 512.6543329 138.54389521 512.68253104 C121.60706591 512.71125289 104.67028114 512.72507172 87.73342687 512.72334349 C78.22385193 512.72267935 68.71437269 512.7281824 59.20481968 512.74969959 C51.10822941 512.76790219 43.01177822 512.77226632 34.91517635 512.75868075 C30.78453462 512.7521464 26.65415978 512.75205055 22.52354336 512.76938725 C18.74027945 512.78510268 14.95749441 512.78227035 11.1742423 512.76481898 C9.16126232 512.76029252 7.14826759 512.77541842 5.13534516 512.79129827 C-3.09206318 512.72845616 -8.7046625 511.8765032 -15.06738758 506.30080509 C-15.60621571 505.64982853 -16.14504383 504.99885197 -16.70020008 504.32814884 C-17.25449696 503.6797504 -17.80879383 503.03135197 -18.37988758 502.36330509 C-21.74078162 497.48546699 -22.11417141 493.00309417 -22.08246899 487.20765305 C-22.08597506 486.39723797 -22.08948114 485.5868229 -22.09309345 484.7518498 C-22.10242802 482.02499225 -22.09747883 479.2983473 -22.09262562 476.57148075 C-22.09636084 474.60121067 -22.10096184 472.63094206 -22.10635626 470.66067582 C-22.11861749 465.23744828 -22.11832212 459.81428227 -22.11596751 454.39104402 C-22.11556013 448.54565212 -22.12659091 442.70028016 -22.13608265 436.8548975 C-22.15271065 425.39935278 -22.15819301 413.94382864 -22.15930741 402.48827287 C-22.16025701 393.17876957 -22.16436292 383.86927308 -22.17070866 374.55977154 C-22.17250372 371.88078653 -22.17428335 369.2018015 -22.17605841 366.52281648 C-22.17650051 365.8568268 -22.1769426 365.19083713 -22.1773981 364.50466595 C-22.18970791 345.76948013 -22.19759908 327.03429664 -22.19671154 308.2991066 C-22.19668038 307.59263122 -22.19664923 306.88615584 -22.19661712 306.15827212 C-22.19645091 302.5774994 -22.19625282 298.99672668 -22.19604771 295.41595396 C-22.19600782 294.70479007 -22.19596793 293.99362619 -22.19592683 293.26091189 C-22.19584595 291.82276492 -22.19576236 290.38461794 -22.19567605 288.94647097 C-22.19445049 266.57033435 -22.20946404 244.19425835 -22.23682117 221.81813908 C-22.26753878 196.68300533 -22.28475387 171.5479114 -22.28289473 146.41275769 C-22.2821534 133.10258315 -22.28775377 119.79247273 -22.30925083 106.48231411 C-22.32743509 95.15049027 -22.33183261 83.81876576 -22.31823198 72.48693367 C-22.31168849 66.70370232 -22.31163503 60.92066169 -22.32893848 55.13744831 C-22.34461302 49.84428572 -22.34186304 44.55146597 -22.32437022 39.25831202 C-22.32128793 37.34244875 -22.32497872 35.42656024 -22.33609037 33.51072671 C-22.35019205 30.90712488 -22.33964083 28.30472885 -22.32297802 25.70116806 C-22.33291438 24.95673629 -22.34285074 24.21230451 -22.3530882 23.4453142 C-22.26590344 17.0051071 -20.10879112 11.87157579 -15.86035633 7.02346134 C-15.20937977 6.48463322 -14.55840321 5.94580509 -13.88770008 5.39064884 C-13.23930164 4.83635197 -12.59090321 4.28205509 -11.92285633 3.71096134 C-8.10146712 1.07797436 -4.6193526 0.01716043 0 0 Z " fill="#2D4356" transform="translate(49.82520008087158,-0.26564884185791016)"/>
<path d="M0 0 C1.12282304 3.36846911 0.86357707 4.56236484 0.1015625 7.9609375 C-0.23911255 9.48146729 -0.23911255 9.48146729 -0.58666992 11.03271484 C-0.84681885 12.13566895 -1.10696777 13.23862305 -1.375 14.375 C-1.64610596 15.52822754 -1.91721191 16.68145508 -2.1965332 17.86962891 C-23.00720448 103.94881719 -23.00720448 103.94881719 -44.06860352 119.22583008 C-45.24715015 119.92118934 -46.43442936 120.60190738 -47.62890625 121.26953125 C-48.25981674 121.63600266 -48.89072723 122.00247406 -49.54075623 122.38005066 C-51.54083969 123.53720236 -53.5513953 124.67463496 -55.5625 125.8125 C-56.91670907 126.59450349 -58.27023226 127.37769602 -59.62304688 128.16210938 C-69.41438497 133.80479499 -69.41438497 133.80479499 -73 135 C-74.31490731 140.9477607 -74.31490731 140.9477607 -72.15625 146.52734375 C-71.29281996 147.68085177 -70.40625907 148.81732739 -69.5 149.9375 C-68.81683716 150.84254272 -68.81683716 150.84254272 -68.11987305 151.76586914 C-66.06756 154.46586348 -63.9371814 157.07377659 -61.73828125 159.65625 C-61.10277344 160.4090625 -60.46726562 161.161875 -59.8125 161.9375 C-59.24144531 162.56527344 -58.67039062 163.19304687 -58.08203125 163.83984375 C-56.39281375 167.21218049 -57.12310222 169.37350748 -58 173 C-59.13982935 176.10970114 -60.49959097 179.08029364 -61.9375 182.0625 C-62.33646484 182.89450928 -62.73542969 183.72651855 -63.14648438 184.58374023 C-73.97819304 206.50194698 -91.97587298 226.3135358 -115.25 234.875 C-117.49173733 235.60906393 -119.74114948 236.32041891 -122 237 C-122.80050781 237.24621094 -123.60101563 237.49242187 -124.42578125 237.74609375 C-130.8682084 239.45386694 -137.38084353 239.18414964 -144 239 C-143.40498856 233.9165505 -142.28757554 229.25002502 -140.6640625 224.390625 C-140.42920135 223.67479752 -140.19434021 222.95897003 -139.95236206 222.22145081 C-139.18479194 219.89480776 -138.4063494 217.57204968 -137.625 215.25 C-137.3571167 214.45032806 -137.0892334 213.65065613 -136.81323242 212.82675171 C-128.845582 189.1167282 -119.19775027 166.37074241 -108 144 C-107.49243164 142.97696777 -106.98486328 141.95393555 -106.46191406 140.89990234 C-92.13254765 112.1372025 -74.88664854 85.22598987 -55 60 C-54.08493365 58.81718218 -53.17090774 57.63355886 -52.2578125 56.44921875 C-46.77366236 49.36136583 -41.06836845 42.60108782 -35 36 C-33.82865335 34.6707762 -32.66175407 33.33761593 -31.5 32 C-30.33352103 30.66650245 -29.16684782 29.33317481 -28 28 C-27.05640625 26.91525391 -27.05640625 26.91525391 -26.09375 25.80859375 C-21.29942762 20.37920254 -16.29830217 15.19363202 -11.1875 10.0625 C-10.54103516 9.41144287 -9.89457031 8.76038574 -9.22851562 8.08959961 C-8.30135742 7.16546265 -8.30135742 7.16546265 -7.35546875 6.22265625 C-6.80528076 5.67359619 -6.25509277 5.12453613 -5.68823242 4.55883789 C-3.88367997 2.89259531 -1.98708587 1.44133502 0 0 Z " fill="#97DF7D" transform="translate(464,121)"/>
<path d="M0 0 C-0.95132813 0.84304687 -0.95132813 0.84304687 -1.921875 1.703125 C-8.9168752 8.00248982 -15.64889823 14.53859195 -22.3125 21.1875 C-23.58335449 22.45158691 -23.58335449 22.45158691 -24.87988281 23.74121094 C-29.79383529 28.66675748 -34.48509999 33.70784785 -39 39 C-39.98480277 40.12966904 -40.97044859 41.25860382 -41.95703125 42.38671875 C-48.60204522 50.04601995 -54.93218457 57.87519093 -61 66 C-61.53915039 66.71849121 -62.07830078 67.43698242 -62.63378906 68.17724609 C-70.42230049 78.57279973 -78.00474892 89.0526004 -85 100 C-85.49322754 100.77005371 -85.98645508 101.54010742 -86.49462891 102.33349609 C-94.44387039 114.80629856 -101.75942409 127.54280306 -108.70996094 140.59619141 C-109.80879461 142.64371531 -110.92933036 144.67502352 -112.0703125 146.69921875 C-128.08107697 175.538692 -139.63669174 207.13869251 -149.21313477 238.59765625 C-150.03741979 241.11424473 -150.99171438 243.55196869 -152 246 C-161.97412572 239.23563282 -168.92124538 231.47149738 -173 220 C-173 219.34 -173 218.68 -173 218 C-171.86820312 217.39671875 -170.73640625 216.7934375 -169.5703125 216.171875 C-168.08822319 215.36516816 -166.60646969 214.55784416 -165.125 213.75 C-164.37863281 213.35425781 -163.63226563 212.95851563 -162.86328125 212.55078125 C-162.14785156 212.15761719 -161.43242187 211.76445312 -160.6953125 211.359375 C-159.7055542 210.82521973 -159.7055542 210.82521973 -158.69580078 210.28027344 C-156.63458808 208.7241261 -155.91040209 207.40057136 -155 205 C-155 199.03236855 -158.15000093 195.99999901 -162 191.875 C-163.11047914 190.66984867 -164.21490578 189.45908544 -165.3125 188.2421875 C-165.80363281 187.7147998 -166.29476563 187.18741211 -166.80078125 186.64404297 C-168.21678492 184.70280341 -168.61859271 183.37085824 -169 181 C-168.56425476 178.94468689 -168.56425476 178.94468689 -167.76831055 176.73803711 C-167.47437912 175.90715073 -167.18044769 175.07626434 -166.87760925 174.22019958 C-166.55061539 173.33155716 -166.22362152 172.44291473 -165.88671875 171.52734375 C-165.55710648 170.60788467 -165.2274942 169.6884256 -164.88789368 168.74110413 C-164.18918068 166.79848017 -163.4852851 164.8577136 -162.77661133 162.91870117 C-161.6917667 159.94917913 -160.62287351 156.97429585 -159.55664062 153.99804688 C-158.87592872 152.11164378 -158.19431812 150.22556469 -157.51171875 148.33984375 C-157.19079758 147.44917709 -156.8698764 146.55851044 -156.53923035 145.64085388 C-156.23584244 144.81311966 -155.93245453 143.98538544 -155.61987305 143.13256836 C-155.35482468 142.40516953 -155.08977631 141.67777069 -154.81669617 140.92832947 C-154 139 -154 139 -152 136 C-149.35791016 134.94091797 -149.35791016 134.94091797 -146.0390625 133.9921875 C-144.84539062 133.64542969 -143.65171875 133.29867187 -142.421875 132.94140625 C-141.16890625 132.58949219 -139.9159375 132.23757812 -138.625 131.875 C-137.37976563 131.51535156 -136.13453125 131.15570313 -134.8515625 130.78515625 C-125.4562996 128.08199333 -125.4562996 128.08199333 -121 127 C-119.789753 122.75851492 -120.02918165 118.71829322 -120.17578125 114.3515625 C-120.21467342 111.69355749 -120.24097604 109.03560726 -120.26635742 106.37744141 C-120.29682818 104.5598362 -120.35042376 102.74245411 -120.4284668 100.92626953 C-121.07507497 85.02116144 -121.07507497 85.02116144 -115.97021484 78.76464844 C-113.08598122 75.70814587 -109.97485167 72.99789449 -106.69158936 70.38012695 C-104.28781293 68.41894375 -102.15309825 66.22963517 -100 64 C-99.44618652 63.43571289 -98.89237305 62.87142578 -98.32177734 62.29003906 C-97.8314502 61.78698242 -97.34112305 61.28392578 -96.8359375 60.765625 C-89.88753896 53.68597337 -82.81370163 47.13026185 -75 41 C-73.8702895 40.07156748 -72.74280774 39.14041854 -71.6171875 38.20703125 C-15.73045323 -7.86522662 -15.73045323 -7.86522662 0 0 Z " fill="#97DF7D" transform="translate(457,107)"/>
<path d="M0 0 C0.97207403 -0.00427212 1.94414807 -0.00854425 2.94567889 -0.01294583 C6.20584576 -0.02118754 9.46472871 0.00632976 12.72477722 0.03364563 C15.0604601 0.03505584 17.3961452 0.03426466 19.73182678 0.03143311 C26.07656326 0.02999651 32.42082864 0.05942651 38.76545548 0.09430289 C44.72304334 0.12236281 50.6806128 0.12741719 56.63825782 0.13256226 C68.43753163 0.14350197 80.23663247 0.17676728 92.03581238 0.22407532 C103.49674108 0.26997934 114.95762279 0.30536708 126.41862488 0.32661438 C127.12522921 0.327928 127.83183355 0.32924161 128.55985013 0.33059504 C132.10472155 0.33712029 135.64959331 0.34343881 139.19446528 0.34965456 C168.596852 0.40147747 197.9990696 0.48990592 227.40129089 0.60127258 C224.30998463 6.93889436 220.5507699 12.87931694 214.40129089 16.60127258 C207.45512061 18.80057214 199.86290582 18.17081323 192.6693573 18.04292297 C190.46896194 18.04772891 188.26857275 18.05775082 186.06822205 18.0725708 C180.11726746 18.09729058 174.16906503 18.04751087 168.21849871 17.98265767 C161.9855666 17.92607812 155.75268878 17.93386422 149.51954651 17.93341064 C139.06024216 17.92323135 128.6019231 17.86770228 118.14299011 17.78120422 C107.38764365 17.69231106 96.63308348 17.6428351 85.87736511 17.63764954 C84.88231006 17.63716104 84.88231006 17.63716104 83.86715288 17.63666267 C83.20491053 17.63634508 82.54266818 17.6360275 81.86035788 17.63570029 C68.97766952 17.62936437 56.09532377 17.58451352 43.21277571 17.52601314 C39.50105039 17.51142175 35.78935715 17.50344144 32.07761002 17.49670601 C26.25124522 17.48391021 20.42560109 17.44521364 14.59952545 17.38633156 C12.46019472 17.36851693 10.32077466 17.35915622 8.18136978 17.35879898 C5.26431325 17.35677665 2.3491844 17.32407052 -0.56755066 17.28329468 C-1.41705555 17.28967345 -2.26656045 17.29605222 -3.14180791 17.30262429 C-7.44129033 17.20737888 -9.11813968 16.97537432 -12.62409401 14.2461462 C-14.59870911 11.60127258 -14.59870911 11.60127258 -15.22370911 8.60127258 C-13.47007553 0.18383142 -7.21971274 -0.11585554 0 0 Z " fill="#2D4356" transform="translate(106.59870910644531,147.3987274169922)"/>
<path d="M0 0 C1.29272718 -0.00640819 1.29272718 -0.00640819 2.61157006 -0.01294583 C5.4986712 -0.02118014 8.38431879 0.00631624 11.27128601 0.03364563 C13.34096238 0.035056 15.41064125 0.03426433 17.48031616 0.03143311 C23.09989434 0.02999715 28.71894008 0.05941653 34.3383944 0.09430289 C40.21070683 0.12553615 46.08303115 0.12849475 51.95541382 0.13442993 C63.0759789 0.14997724 74.19629853 0.19101792 85.31675547 0.24117738 C97.97681355 0.29704307 110.63688328 0.3245504 123.29703391 0.34965456 C149.34026384 0.40193282 175.38327583 0.48989255 201.42631531 0.60127258 C201.42631531 2.58127258 201.42631531 4.56127258 201.42631531 6.60127258 C195.72782255 8.79300057 189.99152646 10.7260774 184.16069031 12.53877258 C181.4319223 13.41159724 181.4319223 13.41159724 179.7247076 15.14302826 C176.52930901 17.17038968 173.58355148 17.02324326 169.91766357 16.99568176 C169.15823296 17.00177287 168.39880236 17.00786397 167.6163587 17.01413965 C165.06986766 17.03079797 162.5238751 17.02598991 159.9773407 17.02119446 C158.15236897 17.02853313 156.32740189 17.03711877 154.50244141 17.04685974 C149.54378201 17.06910511 144.58528864 17.07200493 139.6265862 17.07011223 C135.48877018 17.06999267 131.35098954 17.07855066 127.21318334 17.08688974 C117.45257906 17.10613451 107.69206032 17.10900364 97.93144226 17.10224915 C87.85773928 17.09560637 77.78440227 17.11847982 67.71077353 17.15556288 C59.06522954 17.18623562 50.41980343 17.19762257 41.7742061 17.19372606 C36.60907406 17.19165615 31.44422679 17.19717526 26.27914619 17.22161865 C21.42234915 17.24384331 16.56614818 17.24204371 11.70934868 17.22169113 C9.92633987 17.21827354 8.14329127 17.22340233 6.3603363 17.23767471 C3.92684226 17.25581129 1.49538245 17.24316218 -0.93804932 17.22273254 C-1.99768486 17.24150932 -1.99768486 17.24150932 -3.07872719 17.26066542 C-6.90368466 17.19176869 -8.486145 16.67132845 -11.5118494 14.24993134 C-13.57368469 11.60127258 -13.57368469 11.60127258 -14.19868469 8.60127258 C-12.59181576 0.88830171 -6.94302245 -0.12600027 0 0 Z " fill="#2D4356" transform="translate(105.57368469238281,203.3987274169922)"/>
<path d="M0 0 C1.11698459 -0.00958323 1.11698459 -0.00958323 2.25653452 -0.01936007 C4.74737334 -0.03459947 7.23661876 -0.01415755 9.72740173 0.00622559 C11.51473518 0.00272408 13.30206551 -0.00293483 15.08938599 -0.0105896 C19.94065032 -0.024842 24.79134816 -0.00777223 29.64255834 0.01569557 C34.71758523 0.03579346 39.79258836 0.02992562 44.86764526 0.02758789 C53.38935193 0.02764147 61.91083691 0.04740351 70.43247986 0.07946777 C80.28859535 0.11637265 90.14442054 0.12514177 100.00059611 0.11817026 C109.47853016 0.11186837 118.95636454 0.12261298 128.43427849 0.14213562 C132.4696895 0.15031625 136.50504961 0.15301795 140.54046822 0.15144348 C145.29049315 0.1505655 150.04024156 0.16475749 154.79019356 0.19067001 C156.53490356 0.19784094 158.27964296 0.19991099 160.02436447 0.19655228 C162.40301904 0.19284616 164.7808627 0.2075539 167.15942383 0.22705078 C167.85251445 0.22172286 168.54560508 0.21639493 169.25969845 0.21090555 C172.3024207 0.25404003 174.29564548 0.49596935 176.96308041 2.01354218 C178.51622009 3.62145996 178.51622009 3.62145996 178.72325134 5.74255371 C178.52795837 6.8891748 178.52795837 6.8891748 178.32872009 8.05895996 C178.21141541 8.8207959 178.09411072 9.58263184 177.97325134 10.36755371 C177.54664614 12.47141012 177.0437554 14.54109675 176.51622009 16.62145996 C152.61201442 16.73820918 128.70785141 16.82640698 104.80341816 16.88052082 C93.70441475 16.90631354 82.60558839 16.94148461 71.50669861 16.99865723 C61.83403999 17.04845933 52.16150958 17.0807432 42.48872632 17.09190243 C37.36596286 17.09842658 32.2435662 17.1137825 27.12092018 17.15011024 C22.30035137 17.18401918 17.48030085 17.19452321 12.6596241 17.18699837 C10.88949518 17.1883752 9.11934914 17.19833814 7.34932327 17.21748734 C4.93319201 17.24234679 2.51902033 17.23639265 0.10284424 17.22273254 C-0.59852604 17.23729675 -1.29989632 17.25186096 -2.02252024 17.26686651 C-5.83856448 17.20850171 -7.4005139 16.68812946 -10.41888142 14.27138042 C-12.48377991 11.62145996 -12.48377991 11.62145996 -13.10877991 8.62145996 C-11.62695008 1.50867678 -6.5775048 -0.11917931 0 0 Z " fill="#2D4356" transform="translate(104.48377990722656,371.3785400390625)"/>
<path d="M0 0 C0.72297734 -0.00427212 1.44595468 -0.00854425 2.19084042 -0.01294583 C4.60818288 -0.02116771 7.02378178 0.00629301 9.44096375 0.03364563 C11.17566894 0.03505629 12.91037711 0.03426378 14.64508057 0.03143311 C19.35150759 0.02999823 24.05729776 0.05939956 28.76357675 0.09430289 C33.68295836 0.12555445 38.6023545 0.12849619 43.52182007 0.13442993 C52.8361938 0.14997189 62.15027418 0.19100519 71.46451873 0.24117738 C82.06898638 0.29705982 92.67346802 0.32455459 103.27804625 0.34965456 C125.09122793 0.40192069 146.90412855 0.49087678 168.71708679 0.60127258 C168.71708679 5.88127258 168.71708679 11.16127258 168.71708679 16.60127258 C145.8559444 16.71697326 122.99487242 16.80622288 100.13349628 16.86033344 C89.51876171 16.88612475 78.90421229 16.92129307 68.28959656 16.97846985 C59.03883959 17.02827634 49.7882167 17.06055685 40.53732938 17.07171506 C35.63812393 17.07823847 30.7393021 17.09358963 25.8402195 17.12992287 C21.22976307 17.1638388 16.61984858 17.17433446 12.00927925 17.16681099 C10.31655178 17.16818751 8.62380634 17.17814642 6.93118668 17.19729996 C4.62012442 17.22217083 2.31110938 17.21620167 0 17.20254517 C-1.29327556 17.20715413 -2.58655111 17.2117631 -3.91901684 17.21651173 C-8.16957577 16.43910661 -9.64475634 14.95602643 -12.28291321 11.60127258 C-12.90791321 8.60127258 -12.90791321 8.60127258 -12.28291321 5.60127258 C-8.49875799 0.78923527 -6.03862939 -0.02152042 0 0 Z " fill="#2D4356" transform="translate(104.28291320800781,427.3987274169922)"/>
<path d="M0 0 C0.55241332 0.81232118 1.10482664 1.62464235 1.67397976 2.46157932 C5.3158961 6.05012908 9.47438327 5.60807682 14.34240538 5.65473074 C15.62079848 5.64153077 16.89919157 5.6283308 18.21632385 5.61473083 C19.59135412 5.61834384 20.96638008 5.62414743 22.34139293 5.63195282 C26.11934127 5.64702091 29.89661242 5.63087648 33.6745075 5.6096462 C37.74885291 5.59217824 41.82313025 5.60353139 45.89749146 5.61131287 C53.8786314 5.6219923 61.85950781 5.60602539 69.84060759 5.5811746 C79.13082157 5.55326813 88.42098192 5.55190169 97.71123087 5.55173159 C114.28435039 5.55054384 130.8573487 5.52555912 147.43041992 5.48706055 C163.52027846 5.44970853 179.61004885 5.42846467 195.69995117 5.42553711 C197.18659262 5.42526289 197.18659262 5.42526289 198.70326722 5.42498314 C200.1873129 5.42471468 200.1873129 5.42471468 201.7013393 5.4244408 C203.69326278 5.42407539 205.68518625 5.42370302 207.67710972 5.42332363 C208.65940464 5.42313812 209.64169957 5.4229526 210.653761 5.42276147 C225.9763961 5.41919276 241.29901755 5.40074279 256.62163879 5.38083039 C262.17932056 5.37380369 267.7369991 5.36902334 273.29468436 5.36586904 C282.10918757 5.3608238 290.92362937 5.34941857 299.73810095 5.32456874 C303.76690079 5.31333287 307.79564019 5.30523314 311.82445717 5.30570221 C315.50995276 5.30600981 319.19530523 5.29711106 322.8807634 5.28073419 C324.85094461 5.27434822 326.82114997 5.27775759 328.79133803 5.2814731 C329.95618945 5.27440751 331.12104088 5.26734192 332.32119083 5.26006222 C333.32853655 5.2581113 334.33588226 5.25616037 335.37375361 5.25415033 C338.12146271 4.98824566 339.7076973 4.51680098 342 3 C342.66 2.01 343.32 1.02 344 0 C344.13657216 1.39303605 344.23271149 2.79006121 344.3125 4.1875 C344.37050781 4.96480469 344.42851562 5.74210937 344.48828125 6.54296875 C343.93175843 9.34339157 342.98151615 10.9664158 340.90591049 12.9309833 C336.42263423 15.44563297 330.74111041 14.67833393 325.75244141 14.63491821 C324.3739958 14.64067977 322.99555786 14.64862112 321.617136 14.65855443 C317.82975129 14.67944703 314.04299567 14.66910213 310.25560856 14.65362334 C306.17099282 14.64232344 302.08648624 14.65976575 298.00189209 14.67352295 C290.0003899 14.69577451 281.999122 14.69094568 273.99761057 14.67645974 C267.4955595 14.66517502 260.99357416 14.66363327 254.49151611 14.66907883 C253.56666652 14.66984499 252.64181693 14.67061116 251.6889416 14.67140054 C249.8102199 14.67299914 247.93149823 14.67462021 246.05277658 14.6762635 C228.42944848 14.69052662 210.80625036 14.67411945 193.18294358 14.64726166 C178.05614208 14.62492237 162.92953242 14.62880234 147.80273438 14.65185547 C130.24315671 14.67860354 112.68369301 14.68915327 95.12409782 14.67379415 C93.25222653 14.67220138 91.38035522 14.67062953 89.50848389 14.66907883 C88.58744956 14.66830745 87.66641523 14.66753607 86.71747077 14.66674132 C80.22204012 14.66242134 73.72668167 14.66971729 67.23126221 14.68147659 C59.31715952 14.69548912 51.40330484 14.69172803 43.48923063 14.66507287 C39.45005612 14.65191773 35.41129532 14.64681082 31.37212372 14.66331863 C27.67586007 14.67819671 23.98039434 14.6700667 20.28420329 14.64343087 C18.31077356 14.63518244 16.33728863 14.65154303 14.3639164 14.66871703 C4.81767358 14.56236123 4.81767358 14.56236123 1.70254517 11.61388206 C-0.13587102 8.79140006 -0.5600523 7.50470075 -0.3125 4.1875 C-0.26738281 3.39730469 -0.22226562 2.60710937 -0.17578125 1.79296875 C-0.11777344 1.20128906 -0.05976562 0.60960937 0 0 Z " fill="#BFC7CE" transform="translate(44,482)"/>
<path d="M0 0 C0.69030892 -0.00427212 1.38061784 -0.00854425 2.09184521 -0.01294583 C4.39866263 -0.02116407 6.70365062 0.0062861 9.01029968 0.03364563 C10.66618812 0.03505637 12.32207969 0.03426361 13.97796631 0.03143311 C18.46953679 0.02999855 22.96043962 0.05939455 27.45185494 0.09430289 C32.14701722 0.12555984 36.84219481 0.12849661 41.53744507 0.13442993 C50.42683396 0.14997032 59.3159154 0.19100144 68.2051689 0.24117738 C78.32596781 0.29706475 88.44678141 0.32455582 98.56769621 0.34965456 C119.38556832 0.40191711 140.20316366 0.48986323 161.02079773 0.60127258 C160.56628589 2.33144766 160.10700916 4.06037135 159.64579773 5.78877258 C159.39056335 6.75170227 159.13532898 7.71463196 158.87236023 8.70674133 C158.07313477 11.42337465 157.11766153 13.99264434 156.02079773 16.60127258 C134.85465829 16.71804087 113.68857191 16.80622891 92.52217579 16.86033344 C82.69437713 16.88612216 72.86677853 16.92128544 63.03910828 16.97846985 C54.47394147 17.02828438 45.90891954 17.06055874 37.3436119 17.07171506 C32.80768667 17.07823714 28.27217591 17.09357956 23.73638344 17.12992287 C19.46735833 17.16385167 15.19891855 17.17433196 10.92977142 17.16681099 C9.36282101 17.16818694 7.79585111 17.17813845 6.22901726 17.19729996 C4.08868632 17.22219187 1.95056301 17.21619511 -0.18981934 17.20254517 C-1.98593297 17.20945861 -1.98593297 17.20945861 -3.81833172 17.21651173 C-7.91852508 16.41844062 -9.40737553 14.82397666 -11.97920227 11.60127258 C-12.60420227 8.60127258 -12.60420227 8.60127258 -11.97920227 5.60127258 C-8.26255909 0.9177474 -5.91427579 -0.02208467 0 0 Z " fill="#2D4356" transform="translate(103.97920227050781,259.3987274169922)"/>
<path d="M0 0 C1.31948135 -0.00687332 2.63896271 -0.01374664 3.99842834 -0.02082825 C5.45372581 -0.00313454 6.9090175 0.01503948 8.36430359 0.03364563 C9.9019669 0.03505651 11.43963357 0.03426334 12.97729492 0.03143311 C17.14658307 0.02999908 21.31515133 0.05938605 25.48427224 0.09430289 C29.84310518 0.12556897 34.2019548 0.12849732 38.56088257 0.13442993 C46.81279553 0.14996767 55.0643771 0.19099509 63.31614417 0.24117738 C72.71143958 0.29707309 82.10675085 0.3245579 91.50217116 0.34965456 C110.82709521 0.4019111 130.15169088 0.49085961 149.47636414 0.60127258 C149.47636414 5.88127258 149.47636414 11.16127258 149.47636414 16.60127258 C129.22289983 16.71699227 108.96952881 16.80623254 88.71580219 16.86033344 C79.31173769 16.88612058 69.90788231 16.9212808 60.50395203 16.97846985 C52.30794915 17.02828927 44.1120977 17.06055989 35.91594762 17.07171506 C31.57563386 17.07823633 27.23575335 17.09357343 22.89557838 17.12992287 C18.81040012 17.1638595 14.72583356 17.17433043 10.64052773 17.16681099 C9.14130326 17.1681866 7.64205836 17.1781336 6.14295578 17.19729996 C4.09545443 17.22219376 2.04762489 17.21321147 0 17.20254517 C-1.71868302 17.20945861 -1.71868302 17.20945861 -3.47208691 17.21651173 C-7.49039879 16.40635833 -8.98887806 14.75277423 -11.52363586 11.60127258 C-12.14863586 8.60127258 -12.14863586 8.60127258 -11.52363586 5.60127258 C-7.91725675 1.11740841 -5.71706548 -0.02299705 0 0 Z " fill="#2D4356" transform="translate(103.52363586425781,315.3987274169922)"/>
<path d="M0 0 C1.04557798 -0.00427212 2.09115595 -0.00854425 3.16841811 -0.01294583 C6.67730289 -0.02119162 10.18499643 0.00633713 13.69377136 0.03364563 C16.20679191 0.03505575 18.71981452 0.03426484 21.23283386 0.03143311 C26.64589445 0.03029396 32.05857039 0.04448882 37.4715519 0.0726223 C45.29770701 0.11327153 53.12371644 0.12628093 60.94996568 0.13256226 C73.64769057 0.14350324 86.34525479 0.17677203 99.04289246 0.22407532 C111.37686866 0.26997603 123.7108012 0.30536541 136.04484558 0.32661438 C136.80521584 0.327928 137.56558609 0.32924161 138.34899787 0.33059504 C142.16358259 0.33712026 145.97816762 0.3434388 149.79275286 0.34965456 C181.43460018 0.40148146 213.07624575 0.48991318 244.71794128 0.60127258 C244.71794128 3.24127258 244.71794128 5.88127258 244.71794128 8.60127258 C243.41258045 8.60550452 242.10721962 8.60973646 240.7623024 8.61409664 C209.79081658 8.71472486 178.8193527 8.82042508 147.84790595 8.93238952 C144.03765745 8.94615946 140.22740879 8.9598865 136.41716003 8.97358704 C135.27930967 8.97767949 135.27930967 8.97767949 134.11847243 8.98185463 C121.8283163 9.02595575 109.53815101 9.0665804 97.24797884 9.10592519 C84.64152713 9.1463597 72.03509246 9.19051877 59.42866588 9.23815113 C51.64690594 9.26743602 43.86514729 9.29379943 36.08336517 9.31645156 C30.12100562 9.33411833 24.15867303 9.35696166 18.19633865 9.38176346 C15.74693772 9.39113518 13.29752963 9.39881002 10.84811783 9.4046917 C7.51263654 9.41295075 4.1772343 9.42722703 0.84178162 9.4430542 C-0.13486789 9.44403231 -1.11151739 9.44501041 -2.11776233 9.44601816 C-3.010509 9.4514926 -3.90325567 9.45696705 -4.82305527 9.46260738 C-5.97816451 9.46659445 -5.97816451 9.46659445 -7.1566093 9.47066206 C-9.34571121 9.60518408 -11.20731728 9.8861396 -13.28205872 10.60127258 C-14.56642606 12.58504928 -14.56642606 12.58504928 -15.28205872 14.60127258 C-15.41863088 13.20823653 -15.5147702 11.81121138 -15.59455872 10.41377258 C-15.65256653 9.6364679 -15.71057434 8.85916321 -15.77033997 8.05830383 C-14.10522043 -0.32057765 -6.90220001 -0.10282552 0 0 Z " fill="#EEF3F8" transform="translate(59.28205871582031,15.398727416992188)"/>
<path d="M0 0 C3.73546131 1.55931941 6.10801519 3.86039128 8.95214844 6.70922852 C9.4306575 7.18583923 9.90916656 7.66244995 10.4021759 8.15350342 C11.97616496 9.72379955 13.54285853 11.30115822 15.109375 12.87890625 C16.20188527 13.97260887 17.29476574 15.06594183 18.38800049 16.15892029 C20.67405274 18.44653464 22.95671102 20.7374644 25.23681641 23.03100586 C28.16632047 25.97754963 31.1024149 28.91741713 34.0408287 31.85507298 C36.29553324 34.11004869 38.54762792 36.36761533 40.79883575 38.62608147 C41.88116338 39.71160034 42.96410576 40.7965066 44.04766083 41.88080025 C45.55612417 43.39141949 47.06125564 44.90527735 48.56542969 46.42016602 C49.4238446 47.28239273 50.28225952 48.14461945 51.16668701 49.03297424 C53 51 53 51 53 52 C46.25581973 52.12686439 39.51194756 52.21437811 32.7668457 52.2746582 C30.47278342 52.29978928 28.1788011 52.33389969 25.88500977 52.37719727 C22.58589951 52.43790832 19.28784854 52.46622437 15.98828125 52.48828125 C14.45207878 52.52699089 14.45207878 52.52699089 12.88484192 52.56648254 C8.42879752 52.56823438 5.73526891 52.43269847 1.84375 50.14257812 C-0.87113696 45.51519134 -0.6240015 41.50152547 -0.48828125 36.23046875 C-0.48120651 35.19432938 -0.47413177 34.15819 -0.46684265 33.09065247 C-0.43890607 29.78886003 -0.3761663 26.48877784 -0.3125 23.1875 C-0.2874163 20.94598807 -0.26460326 18.7044495 -0.24414062 16.46289062 C-0.18908206 10.9746792 -0.10546281 5.48746179 0 0 Z " fill="#7FD5DF" transform="translate(320,28)"/>
<path d="M0 0 C-0.84304688 0.77085938 -1.68609375 1.54171875 -2.5546875 2.3359375 C-3.66148032 3.34893432 -4.76824994 4.36195647 -5.875 5.375 C-6.43058594 5.88289063 -6.98617187 6.39078125 -7.55859375 6.9140625 C-9.74011781 8.9116026 -11.90816093 10.90816093 -14 13 C-15.84545898 13.69335938 -15.84545898 13.69335938 -18.05859375 14.34375 C-23.01093198 15.92628269 -27.48077068 18.05974156 -32.0625 20.5 C-32.88250488 20.93505859 -33.70250977 21.37011719 -34.54736328 21.81835938 C-42.79410391 26.28673826 -50.45704056 31.43926483 -58 37 C-58.57443848 37.4228125 -59.14887695 37.845625 -59.74072266 38.28125 C-77.86230164 51.7240904 -94.22709831 67.05334754 -110.0546875 83.09130859 C-110.93769531 83.98285645 -111.82070313 84.8744043 -112.73046875 85.79296875 C-113.52864014 86.6027417 -114.32681152 87.41251465 -115.14916992 88.24682617 C-117 90 -117 90 -118 90 C-118.73782804 83.16577463 -118.73782804 83.16577463 -116.86181641 80.20166016 C-115.25404656 78.4666235 -113.58130443 76.88286251 -111.8125 75.3125 C-111.23435547 74.77044922 -110.65621094 74.22839844 -110.06054688 73.66992188 C-108.91591471 72.59771841 -107.76426614 71.53295249 -106.60546875 70.47607422 C-103.79919129 67.89597179 -101.14354358 65.16923707 -98.47875977 62.44458008 C-90.99044429 54.79156395 -83.43634329 47.61875713 -75 41 C-73.8702895 40.07156748 -72.74280774 39.14041854 -71.6171875 38.20703125 C-15.73045323 -7.86522662 -15.73045323 -7.86522662 0 0 Z " fill="#B3DDA4" transform="translate(457,107)"/>
<path d="M0 0 C0.99 0.495 0.99 0.495 2 1 C1.48183239 6.9868288 -0.33841152 11.67202118 -2.9375 17.0625 C-3.33646484 17.89450928 -3.73542969 18.72651855 -4.14648438 19.58374023 C-14.97819304 41.50194698 -32.97587298 61.3135358 -56.25 69.875 C-58.49173733 70.60906393 -60.74114948 71.32041891 -63 72 C-63.80050781 72.24621094 -64.60101563 72.49242187 -65.42578125 72.74609375 C-71.8682084 74.45386694 -78.38084353 74.18414964 -85 74 C-84.125 67.125 -84.125 67.125 -83 66 C-81.27854115 65.84195043 -79.55653014 65.68860224 -77.83276367 65.55810547 C-54.84556162 63.65161409 -35.26131975 52.39106315 -20.33984375 34.96875 C-11.7846056 24.5099877 -5.12397629 12.47576837 0 0 Z " fill="#82C26B" transform="translate(405,286)"/>
<path d="M0 0 C0.33 0 0.66 0 1 0 C1.5979489 7.05579698 1.5979489 7.05579698 -0.6796875 10.65234375 C-3.54332466 13.31472229 -6.31298141 13.46472235 -10.12109375 13.8671875 C-21.9117879 15.22401297 -21.9117879 15.22401297 -32 21 C-39.91423923 31.92114812 -42.85831124 47.09754767 -46 60 C-46.99 60 -47.98 60 -49 60 C-47.21251406 51.10986266 -44.32514247 42.7657243 -41.25219727 34.25048828 C-40.62332767 32.49344394 -40.00587619 30.73227285 -39.3996582 28.96728516 C-38.51686428 26.39816203 -37.6005275 23.84333925 -36.67578125 21.2890625 C-36.41195145 20.50157623 -36.14812164 19.71408997 -35.876297 18.90274048 C-34.32462551 14.74964572 -33.5948643 13.33505321 -29.59130859 11.08007812 C-27.81361084 10.54543945 -27.81361084 10.54543945 -26 10 C-24.6838269 9.5666333 -24.6838269 9.5666333 -23.34106445 9.12451172 C-22.11456177 8.78057373 -22.11456177 8.78057373 -20.86328125 8.4296875 C-19.95642578 8.17316406 -19.04957031 7.91664063 -18.11523438 7.65234375 C-17.19033203 7.39582031 -16.26542969 7.13929688 -15.3125 6.875 C-14.37599609 6.61074219 -13.43949219 6.34648437 -12.47460938 6.07421875 C-5.26569116 4.0468713 -5.26569116 4.0468713 -2.76635742 3.60595703 C-2.18345947 3.40599121 -1.60056152 3.20602539 -1 3 C-0.67 2.01 -0.34 1.02 0 0 Z " fill="#B2DCA3" transform="translate(337,231)"/>
<path d="M0 0 C0.64026123 0.65774414 1.28052246 1.31548828 1.94018555 1.99316406 C6.11386682 4.73055017 9.09931798 4.37901874 13.95703125 4.109375 C15.72718193 4.05877769 17.49736592 4.00933474 19.26757812 3.9609375 C22.03989041 3.86186504 24.81044173 3.75009946 27.58129883 3.61621094 C43.12355173 2.9129541 43.12355173 2.9129541 48.04443359 5.76367188 C50.05410111 7.74811344 51.61189291 9.54629838 53 12 C53 12.33 53 12.66 53 13 C46.25581973 13.12686439 39.51194756 13.21437811 32.7668457 13.2746582 C30.47278342 13.29978928 28.1788011 13.33389969 25.88500977 13.37719727 C22.58589951 13.43790832 19.28784854 13.46622437 15.98828125 13.48828125 C14.45207878 13.52699089 14.45207878 13.52699089 12.88484192 13.56648254 C5.75160752 13.56928689 5.75160752 13.56928689 1.84375 10.609375 C-0.90694251 6.71644576 -0.39311593 4.63876803 0 0 Z " fill="#65B2B8" transform="translate(320,67)"/>
<path d="M0 0 C1.97669048 2.45231799 3.93293479 4.91067546 5.82421875 7.4296875 C10.28812446 13.28797885 14.96562184 17.78152267 21 22 C20.34 24.31 19.68 26.62 19 29 C9.02587428 22.23563282 2.07875462 14.47149738 -2 3 C-2 2.34 -2 1.68 -2 1 C-1.34 0.67 -0.68 0.34 0 0 Z " fill="#81C16A" transform="translate(286,324)"/>
</svg>
